<svg version="1.2" xmlns="http://www.w3.org/2000/svg" viewBox="0 0 108 66" width="98" height="60">
	<title>Nytt projekt</title>
	<style>
		.s0 { fill: #ffffff } 
	</style>
	<path id="ISA" class="s0" aria-label="ISA"  d="m2.9 40v-37.2h5.4v37.2zm5.1-37h-5v36.8h5zm-5.1-0.2v37.3h5.3v-37.3zm41.3 16h-10.7c-0.3 0-0.6 0-0.9 0-0.2 0-0.3 0-0.5 0-2.7-0.3-4.8-2.5-4.8-5.3 0-2.9 2.4-5.2 5.3-5.2h11.8c2.7 0.1 4.9 2.2 5.1 5h5.3c0-1.9-0.5-3.6-1.4-5 0 0 0 0 0 0-1.8-3.2-5.1-5.3-8.9-5.4-0.1 0-0.2 0-0.3 0-0.1 0-0.2 0-0.3 0h-11.3c-3.9 0-7.4 2.2-9.2 5.4-0.9 1.5-1.4 3.3-1.4 5.2 0 1.9 0.5 3.7 1.4 5.3 0.4 0.8 1 1.5 1.6 2.1 1.9 2 4.6 3.3 7.6 3.3h11.6c2.9 0 5.3 2.3 5.3 5.2 0 2.9-2.4 5.3-5.3 5.3h-11.6c-2.8 0-5.1-2.2-5.3-5h-5.3c0 1.8 0.5 3.5 1.4 5 1.8 3.2 5.3 5.4 9.2 5.4h11.6c3.9 0 7.4-2.2 9.2-5.4 0.9-1.6 1.4-3.4 1.4-5.3 0-1.9-0.5-3.7-1.4-5.2-1.8-3.2-5.3-5.4-9.2-5.4zm18.8 21.3h7.1l11.8-21.3-3.5-6.4zm24.1-30.9l-3.5-6.4-3.5 6.4 3.5 6.4 13.5 24.5h7.1z"/>
	<path id="westling" class="s0" aria-label="westling"  d="m17.5 51l-3.2 7.1-2.3-5.1-0.9-2-0.8 2-2.4 5.1-3.1-7.1h-1.8l4.1 9 0.8 2 0.9-2 2.3-5.1 2.4 5.1 0.8 2 0.9-2 4.1-9zm6.9 5.8h7.2v-1.6h-7.2v-1.9h-1.6v8.7h9.8v-1.6h-8.2zm-1.6-6v1.6h9.8v-1.6zm20.1 4.8h-3.2c-0.1 0-0.2 0-0.3 0 0 0-0.1 0-0.1 0-0.8-0.1-1.4-0.8-1.4-1.6 0-0.9 0.7-1.6 1.5-1.6h3.6c0.8 0.1 1.4 0.7 1.5 1.5h1.6c0-0.5-0.2-1-0.4-1.5 0 0 0 0 0 0-0.6-0.9-1.6-1.5-2.7-1.6 0 0-0.1 0-0.1 0 0 0 0 0-0.1 0h-3.4c-1.1 0-2.2 0.7-2.7 1.6-0.3 0.5-0.4 1-0.4 1.6 0 0.6 0.1 1.1 0.4 1.6 0.1 0.2 0.3 0.4 0.5 0.6 0.5 0.6 1.3 1 2.2 1h3.5c0.9 0 1.6 0.7 1.6 1.6 0 0.8-0.7 1.6-1.6 1.6h-3.5c-0.8 0-1.5-0.7-1.5-1.5h-1.6c0 0.5 0.1 1 0.4 1.5 0.5 0.9 1.6 1.6 2.7 1.6h3.5c1.2 0 2.2-0.7 2.8-1.6 0.2-0.5 0.4-1.1 0.4-1.6 0-0.6-0.2-1.1-0.4-1.6-0.6-1-1.6-1.6-2.8-1.6zm13 6.4v-8.8h-1.6v8.8zm4.2-9.6v-1.6h-9.9v1.6zm5.7 8v-9.7h-1.6v11.3h8.7v-1.6zm11.1 1.6v-11.2h1.7v11.2zm1.5-11.1h-1.5v11h1.5zm-1.5 0v11.1h1.6v-11.1zm5.7 11.1h1.6v-6.1l-1.6-1.6zm7.2-11.2v7.2l-7.2-7.2v2.3l1.6 1.6 5.6 5.6 1.6 1.6v-11.1zm16 4.4h-5.5l0.8 1.6h3.1v3.6h-3.7c-2-0.3-3.6-2-3.6-4 0-2 1.6-3.7 3.6-3.9h5.3v-1.7h-4.8c-1.5 0-2.9 0.7-4 1.7-1 1-1.7 2.4-1.7 3.9 0 1.5 0.7 2.9 1.7 4 1.1 0.9 2.5 1.6 4 1.6h4.8z"/>
</svg>